<mxfile host="65bd71144e" pages="2">
    <diagram name="Sequence" id="JgcEw9M8dI1Xy2gp9OZx">
        <mxGraphModel dx="1164" dy="819" grid="1" gridSize="10" guides="1" tooltips="1" connect="1" arrows="1" fold="1" page="1" pageScale="1" pageWidth="850" pageHeight="1100" math="0" shadow="0">
            <root>
                <mxCell id="UR0DFZb04nUeP79YXbAC-0"/>
                <mxCell id="UR0DFZb04nUeP79YXbAC-1" parent="UR0DFZb04nUeP79YXbAC-0"/>
                <mxCell id="UR0DFZb04nUeP79YXbAC-8" value="TLS(bien reçu)" style="html=1;verticalAlign=bottom;endArrow=open;dashed=1;endSize=8;" parent="UR0DFZb04nUeP79YXbAC-1" source="jlnA7Bbo42E9i6tjMMHw-5" edge="1">
                    <mxGeometry relative="1" as="geometry">
                        <mxPoint x="710" y="560" as="sourcePoint"/>
                        <mxPoint x="110" y="560" as="targetPoint"/>
                    </mxGeometry>
                </mxCell>
                <mxCell id="jlnA7Bbo42E9i6tjMMHw-2" value="Server" style="shape=umlLifeline;perimeter=lifelinePerimeter;whiteSpace=wrap;html=1;container=1;collapsible=0;recursiveResize=0;outlineConnect=0;lifelineDashed=0;" parent="UR0DFZb04nUeP79YXbAC-1" vertex="1">
                    <mxGeometry x="420" y="280" width="100" height="300" as="geometry"/>
                </mxCell>
                <mxCell id="jlnA7Bbo42E9i6tjMMHw-4" value="Alice" style="shape=umlLifeline;perimeter=lifelinePerimeter;whiteSpace=wrap;html=1;container=1;collapsible=0;recursiveResize=0;outlineConnect=0;lifelineDashed=0;" parent="UR0DFZb04nUeP79YXbAC-1" vertex="1">
                    <mxGeometry x="60" y="280" width="100" height="300" as="geometry"/>
                </mxCell>
                <mxCell id="jlnA7Bbo42E9i6tjMMHw-5" value="Bob" style="shape=umlLifeline;perimeter=lifelinePerimeter;whiteSpace=wrap;html=1;container=1;collapsible=0;recursiveResize=0;outlineConnect=0;lifelineDashed=0;" parent="UR0DFZb04nUeP79YXbAC-1" vertex="1">
                    <mxGeometry x="600" y="280" width="100" height="300" as="geometry"/>
                </mxCell>
                <mxCell id="jlnA7Bbo42E9i6tjMMHw-16" value="message?" style="html=1;verticalAlign=bottom;endArrow=block;" parent="jlnA7Bbo42E9i6tjMMHw-5" edge="1">
                    <mxGeometry x="-0.0016" width="80" relative="1" as="geometry">
                        <mxPoint x="50" y="200" as="sourcePoint"/>
                        <mxPoint x="-130" y="200" as="targetPoint"/>
                        <mxPoint as="offset"/>
                    </mxGeometry>
                </mxCell>
                <mxCell id="jlnA7Bbo42E9i6tjMMHw-13" value="TLS(key_pub)" style="html=1;verticalAlign=bottom;startArrow=circle;startFill=1;endArrow=open;startSize=6;endSize=8;" parent="UR0DFZb04nUeP79YXbAC-1" target="0" edge="1">
                    <mxGeometry x="-0.0288" width="80" relative="1" as="geometry">
                        <mxPoint x="100" y="359.5" as="sourcePoint"/>
                        <mxPoint x="230" y="320" as="targetPoint"/>
                        <mxPoint as="offset"/>
                    </mxGeometry>
                </mxCell>
                <mxCell id="jlnA7Bbo42E9i6tjMMHw-14" value="TLS(alice_pub_key)" style="html=1;verticalAlign=bottom;endArrow=block;" parent="UR0DFZb04nUeP79YXbAC-1" edge="1">
                    <mxGeometry x="-0.0305" width="80" relative="1" as="geometry">
                        <mxPoint x="290" y="400" as="sourcePoint"/>
                        <mxPoint x="650" y="400" as="targetPoint"/>
                        <mxPoint as="offset"/>
                    </mxGeometry>
                </mxCell>
                <mxCell id="jlnA7Bbo42E9i6tjMMHw-15" value="RSA(message, key_pub)" style="html=1;verticalAlign=bottom;endArrow=block;" parent="UR0DFZb04nUeP79YXbAC-1" target="jlnA7Bbo42E9i6tjMMHw-2" edge="1">
                    <mxGeometry width="80" relative="1" as="geometry">
                        <mxPoint x="110" y="440" as="sourcePoint"/>
                        <mxPoint x="430" y="440" as="targetPoint"/>
                    </mxGeometry>
                </mxCell>
                <mxCell id="jlnA7Bbo42E9i6tjMMHw-17" value="RSA(message, key_bob)" style="html=1;verticalAlign=bottom;endArrow=block;" parent="UR0DFZb04nUeP79YXbAC-1" edge="1">
                    <mxGeometry width="80" relative="1" as="geometry">
                        <mxPoint x="470" y="520" as="sourcePoint"/>
                        <mxPoint x="650" y="520" as="targetPoint"/>
                    </mxGeometry>
                </mxCell>
                <mxCell id="0" value="Confident Tiers" style="shape=umlLifeline;perimeter=lifelinePerimeter;whiteSpace=wrap;html=1;container=1;collapsible=0;recursiveResize=0;outlineConnect=0;lifelineDashed=0;" parent="UR0DFZb04nUeP79YXbAC-1" vertex="1">
                    <mxGeometry x="240" y="140" width="100" height="440" as="geometry"/>
                </mxCell>
                <mxCell id="2" value="&lt;p&gt;&lt;span style=&quot;color: rgb(224, 225, 229); font-style: normal; font-variant-ligatures: normal; font-variant-caps: normal; font-weight: 400; letter-spacing: normal; orphans: 2; text-align: left; text-indent: 0px; text-transform: none; widows: 2; word-spacing: 0px; -webkit-text-stroke-width: 0px; text-decoration-thickness: initial; text-decoration-style: initial; text-decoration-color: initial; float: none; display: inline !important;&quot;&gt;&lt;font style=&quot;font-size: 18px;&quot;&gt;Il est strictement impossible de rentre restreindre l'accès  aux bases de données cependant il est possible de limité les actions effectuer sur le serveur&lt;/font&gt;&lt;/span&gt;&lt;/p&gt;" style="text;whiteSpace=wrap;html=1;" vertex="1" parent="UR0DFZb04nUeP79YXbAC-1">
                    <mxGeometry x="180" y="630" width="430" height="80" as="geometry"/>
                </mxCell>
            </root>
        </mxGraphModel>
    </diagram>
</mxfile>